 http://img714.imageshack.us/img714/1497/0c2919286hwaqqwa.jpg

Country.......: USA
Genre.........: Horror
Date release..: 2010 [World]
Director......: Sean Tretta
Writers.......: Mary Shelley, Sean Tretta
Duration......: 87 min.
More..........: http://www.imdb.com/title/tt1337686
Trailer.......:

Pilot :
A group of researchers conducting illegal stem cell research discover a cell anomaly that has the potential to regenerate dead tissue. Unable to conduct legal human trials, the researchers turn to corpses to test their serum. 

Cats :
Ed Lauter   	 ...  	Dr. Walton
Louis Mandylor 	... 	Marcus
Tiffany Shepis 	... 	Elizabeth Barnes
Kristina Wayborn 	... 	Elizabeths Mother
Maya Stojan 	... 	Dr. Waltons Nurse
Patti Tindall 	... 	Victoria Travelle
Scott Anthony Leet 	... 	David Doyle
Shane Dean 	... 	Agent Wollstonecraft
David C. Hayes 	... 	Paul Fitcher
Esther Ellsworth 	... 	Agent Godwin
Richard Anderson 	... 	Marquez
Joe Ricci 	... 	Cyrus
Lillie Richardson 	... 	Ott
Kevin Tye 	... 	Ivan Green
Jonathan Northover 	... 	William McKennin 

Data Technical :
!!! SAMPLE !!!
Audio.....: English
Subtitles.: Spanish .sub
Format                           : AVI
Format/Info                      : Audio Video Interleave
File size                        : 699 MiB
Duration                         : 1h 27mn
Overall bit rate                 : 1 118 Kbps
Writing library                  : VirtualDub build 32842/release
Video
ID                               : 0
Format                           : MPEG-4 Visual
Format profile                   : Advanced Simple@L5
Format settings, BVOP            : Yes
Format settings, QPel            : No
Format settings, GMC             : No warppoints
Format settings, Matrix          : Default (H.263)
Muxing mode                      : Packed bitstream
Codec ID                         : XVID
Codec ID/Hint                    : XviD
Duration                         : 1h 27mn
Bit rate                         : 980 Kbps
Width                            : 640 pixels
Height                           : 256 pixels
Display aspect ratio             : 2.500
Frame rate                       : 23.976 fps
Color space                      : YUV
Chroma subsampling               : 4:2:0
Bit depth                        : 8 bits
Scan type                        : Progressive
Bits/(Pixel*Frame)               : 0.250
Stream size                      : 613 MiB (88%)
Writing library                  : XviD 62
Audio
ID                               : 1
Format                           : MPEG Audio
Format version                   : Version 1
Format profile                   : Layer 3
Mode                             : Joint stereo
Mode extension                   : MS Stereo
Codec ID                         : 55
Codec ID/Hint                    : MP3
Duration                         : 1h 27mn
Bit rate mode                    : Constant
Bit rate                         : 128 Kbps
Channel(s)                       : 2 channels
Sampling rate                    : 48.0 KHz
Stream size                      : 80.0 MiB (11%)
Alignment                        : Split accross interleaves
Interleave, duration             : 42 ms (1.00 video frame)
Interleave, preload duration     : 500 ms
Writing library                  : LAME3.98r
Encoding settings                : -m j -V 4 -q 3 -lowpass 17 -b 128

Screen : 
http://img84.imageshack.us/img84/6181/thefrankensteinsyndrome.jpg 
http://img36.imageshack.us/img36/6181/thefrankensteinsyndrome.jpg 
http://img703.imageshack.us/img703/6181/thefrankensteinsyndrome.jpg 
http://img683.imageshack.us/img683/6181/thefrankensteinsyndrome.jpg 
http://img233.imageshack.us/img233/6181/thefrankensteinsyndrome.jpg